<?xml version="1.0" standalone="no"?><!DOCTYPE svg PUBLIC "-//W3C//DTD SVG 1.1//EN" "http://www.w3.org/Graphics/SVG/1.1/DTD/svg11.dtd"><svg t="1705912131323" class="icon" viewBox="0 0 1024 1024" version="1.1" xmlns="http://www.w3.org/2000/svg" p-id="6588" width="32" height="32" xmlns:xlink="http://www.w3.org/1999/xlink"><path d="M548.769933 204.8c152.439467 0 277.8112 113.698133 292.590934 259.310933C927.0014 487.082667 989.875 563.950933 989.875 655.1552 989.875 764.6208 899.3534 853.333333 787.703267 853.333333H273.075c-131.959467 0-238.933333-104.8576-238.933333-234.1888 0-127.488 103.936-231.185067 233.301333-234.154666h8.635733C319.667 279.313067 425.309667 204.8 548.769933 204.8z m0 57.207467c-96.938667 0-182.852267 57.856-218.589866 144.418133l-14.677334 35.566933-39.1168 0.2048h-7.611733C170.913933 444.484267 92.509667 522.990933 92.509667 619.178667c0 97.723733 80.861867 176.9472 180.565333 176.9472h514.628267c79.394133 0 143.803733-63.0784 143.803733-140.936534 0-63.829333-43.7248-119.227733-105.5744-135.850666l-38.673067-10.410667-3.959466-39.1168c-11.946667-117.418667-113.186133-207.7696-234.530134-207.7696z m21.435734 114.449066a19.456 19.456 0 0 1 19.626666 19.2512v343.005867a19.456 19.456 0 0 1-19.626666 19.2512h-19.114667a19.456 19.456 0 0 1-19.626667-19.2512V395.707733a19.456 19.456 0 0 1 19.626667-19.2512h19.114667zM434.013667 529.066667a19.456 19.456 0 0 1 19.626666 19.2512v190.395733a19.456 19.456 0 0 1-19.6608 19.2512h-19.114666a19.456 19.456 0 0 1-19.626667-19.2512v-190.395733a19.456 19.456 0 0 1 19.626667-19.2512h19.114666z m-116.804267 57.2416a19.456 19.456 0 0 1 19.6608 19.217066v133.188267a19.456 19.456 0 0 1-19.6608 19.2512h-19.114667a19.456 19.456 0 0 1-19.626666-19.2512V605.525333a19.456 19.456 0 0 1 19.6608-19.217066h19.114666z m389.2224-114.449067a19.456 19.456 0 0 1 19.626667 19.217067v247.637333a19.456 19.456 0 0 1-19.626667 19.2512h-19.114667a19.456 19.456 0 0 1-19.626666-19.2512V491.076267a19.456 19.456 0 0 1 19.626666-19.217067h19.114667z" p-id="6589"></path></svg>