<svg t="1705911642060" class="icon" viewBox="0 0 1024 1024" version="1.1" xmlns="http://www.w3.org/2000/svg" p-id="2170"
    id="mx_n_1705911642065" width="32" height="32">
    <path
        d="M842 852H182c-49.5 0-90-40.5-90-90V284c0-49.5 40.5-90 90-90h660c49.5 0 90 40.5 90 90v478c0 49.5-40.5 90-90 90z"
        fill="#FCF6F6" p-id="2171"></path>
    <path
        d="M932 284v478c0 49.5-40.5 90-90 90H182c-34.4 0-64.4-19.5-79.5-48h715.1c33.2 0 60.4-27.2 60.4-60.4V206.4c0-1.7-0.1-3.3-0.2-4.9 31.8 13.9 54.2 45.7 54.2 82.5z"
        fill="#E2D7D7" p-id="2172"></path>
    <path d="M932 284v45H92v-45c0-49.5 40.5-90 90-90h660c49.5 0 90 40.5 90 90z" fill="#E73F5F" p-id="2173"></path>
    <path d="M932 284v45H92v-45h790v-45c0-14.2-3.3-27.6-9.2-39.5 34.4 12.6 59.2 45.8 59.2 84.5z" fill="#CE1743"
        p-id="2174"></path>
    <path d="M512 478m-34 0a34 34 0 1 0 68 0 34 34 0 1 0-68 0Z" fill="#EEE003" p-id="2175"></path>
    <path d="M845.5 486.1c1.5-3.8 2.4-7.9 2.4-12.3 0-18-14.6-32.6-32.6-32.6-9.8 0-18.6 4.3-24.6 11.2V486l54.8 0.1z"
        fill="#EEE003" p-id="2176"></path>
    <path
        d="M825.6 479.4c-4.6 0-9 1.1-12.9 3-2-17.5-16.8-31.1-34.8-31.1-19.4 0-35.1 15.7-35.1 35.1 0 1.5 0.1 2.9 0.3 4.3-0.6 0-1.1-0.1-1.7-0.1-13.2 0-23.9 10.7-23.9 23.9s10.7 23.9 23.9 23.9c0.5 0 0.9 0 1.4-0.1v0.1h81.4v-0.1c0.5 0 0.9 0.1 1.4 0.1 16.3 0 29.5-13.2 29.5-29.5s-13.2-29.5-29.5-29.5zM294 496.1c1.6-3.8 2.5-7.9 2.5-12.3 0-17-13.8-30.8-30.8-30.8-4.8 0-9.4 1.1-13.5 3.1-2.1-18.3-17.6-32.5-36.4-32.5-20.3 0-36.7 16.4-36.7 36.7 0 1.5 0.1 3 0.3 4.5-0.6 0-1.2-0.1-1.8-0.1-13.8 0-25 11.2-25 25s11.2 25 25 25c0.5 0 1 0 1.5-0.1v0.1h44"
        fill="#9DEAFF" p-id="2177"></path>
    <path
        d="M288.7 496.5c-2.8 0-5.5 0.7-7.8 1.8-1.2-10.6-10.2-18.9-21.2-18.9-11.8 0-21.3 9.5-21.3 21.3 0 0.9 0.1 1.8 0.2 2.6-0.3 0-0.7-0.1-1-0.1-8 0-14.5 6.5-14.5 14.5s6.5 14.5 14.5 14.5H288.8c9.9 0 17.9-8 17.9-17.9-0.1-9.8-8.1-17.8-18-17.8z"
        fill="#9DEAFF" p-id="2178"></path>
    <path
        d="M842 174h-50v-19c0-11-9-20-20-20s-20 9-20 20v19h-90v-19c0-11-9-20-20-20s-20 9-20 20v19h-90v-19c0-11-9-20-20-20s-20 9-20 20v19h-90v-19c0-11-9-20-20-20s-20 9-20 20v19h-90v-19c0-11-9-20-20-20s-20 9-20 20v19h-50c-60.7 0-110 49.3-110 110v478c0 60.7 49.3 110 110 110h660c60.7 0 110-49.3 110-110V284c0-60.7-49.3-110-110-110z m-660 40h50v21c0 11 9 20 20 20s20-9 20-20v-21h90v21c0 11 9 20 20 20s20-9 20-20v-21h90v21c0 11 9 20 20 20s20-9 20-20v-21h90v21c0 11 9 20 20 20s20-9 20-20v-21h90v21c0 11 9 20 20 20s20-9 20-20v-21h50c38.6 0 70 31.4 70 70v25H112v-25c0-38.6 31.4-70 70-70z m452.5 135v483h-245V349h245zM112 762V349h237.5v483H182c-38.6 0-70-31.4-70-70z m730 70H674.5V349H912v413c0 38.6-31.4 70-70 70zM302.2 493.5c0.8-3.2 1.3-6.4 1.3-9.7 0-20.8-17-37.8-37.8-37.8-2.8 0-5.6 0.3-8.3 0.9a43.62 43.62 0 0 0-41.6-30.3c-23.4 0-42.5 18.5-43.6 41.6-15.1 2.6-26.6 15.7-26.6 31.5 0 17.6 14.4 32 32 32h38.9c1.9 9.9 10.6 17.5 21.1 17.5h51.2c13.7 0 24.9-11.2 24.9-25-0.1-8.6-4.6-16.3-11.5-20.7z m-124.3 14.2h-0.3c-9.9 0-18-8.1-18-18s8.1-18 18-18h0.4c0.5 0 1 0.1 1.5 0.1 2 0 3.9-0.9 5.3-2.4 1.3-1.5 1.9-3.5 1.7-5.5-0.2-1.2-0.2-2.4-0.2-3.6 0-16.4 13.3-29.7 29.7-29.7 15.1 0 27.7 11.3 29.4 26.3 0.3 2.3 1.6 4.2 3.6 5.3 2 1.1 4.4 1.1 6.4 0.2 3.2-1.6 6.8-2.4 10.4-2.4 13.1 0 23.8 10.7 23.8 23.8 0 1.9-0.2 3.8-0.7 5.7h-0.1c-1 0-1.9 0.1-2.9 0.2-4.3-10.2-14.5-17.3-26.1-17.3-14.4 0-26.3 10.8-28.1 24.6-5.7 1.6-10.4 5.5-13.1 10.7h-38.3c-0.8-0.1-1.6-0.1-2.4 0z m110.9 17.5h-51.2c-4.1 0-7.5-3.4-7.5-7.5 0-4 3.2-7.3 7.2-7.5 0.3 0 0.8 0.1 1.3 0.1 2 0 3.9-0.9 5.2-2.4s1.9-3.5 1.7-5.5c-0.1-0.6-0.1-1.2-0.1-1.7 0-7.9 6.4-14.3 14.3-14.3 7.3 0 13.4 5.5 14.2 12.7 0.3 2.2 1.6 4.2 3.6 5.3 2 1.1 4.4 1.2 6.4 0.2 1.1-0.5 2.8-1.1 4.8-1.1 6 0 10.9 4.9 11 10.8 0 6-4.9 10.9-10.9 10.9z m208.9-93.4c-3.1 0-5.9-2.1-6.8-5.2l-4.5-16.8c-1-3.7 1.2-7.6 5-8.6 3.7-1 7.6 1.2 8.6 5l4.5 16.8c1 3.7-1.2 7.6-5 8.6-0.6 0.1-1.2 0.2-1.8 0.2z m-24.6 14.3c-1.8 0-3.6-0.7-4.9-2.1l-12.3-12.3c-2.7-2.7-2.7-7.2 0-9.9s7.2-2.7 9.9 0l12.3 12.3c2.7 2.7 2.7 7.2 0 9.9-1.4 1.4-3.2 2.1-5 2.1z m-14.3 24.6c-0.6 0-1.2-0.1-1.8-0.2l-16.8-4.5c-3.7-1-6-4.8-5-8.6 1-3.7 4.8-6 8.6-5l16.8 4.5c3.7 1 6 4.8 5 8.6-0.9 3.1-3.7 5.2-6.8 5.2zM442 503.8c-3.1 0-5.9-2.1-6.8-5.2-1-3.7 1.2-7.6 5-8.6l16.8-4.5c3.7-1 7.6 1.2 8.6 5 1 3.7-1.2 7.6-5 8.6l-16.8 4.5c-0.6 0.1-1.2 0.2-1.8 0.2z m18.8 32.4c-1.8 0-3.6-0.7-4.9-2.1-2.7-2.7-2.7-7.2 0-9.9l12.3-12.3c2.7-2.7 7.2-2.7 9.9 0s2.7 7.2 0 9.9l-12.3 12.3c-1.4 1.4-3.2 2.1-5 2.1z m32.4 18.8c-0.6 0-1.2-0.1-1.8-0.2-3.7-1-6-4.8-5-8.6l4.5-16.8c1-3.7 4.8-5.9 8.6-5 3.7 1 6 4.8 5 8.6l-4.5 16.8c-0.9 3.1-3.7 5.2-6.8 5.2z m37.6 0c-3.1 0-5.9-2.1-6.8-5.2l-4.5-16.8c-1-3.7 1.2-7.6 5-8.6 3.7-1 7.6 1.2 8.6 5l4.5 16.8c1 3.7-1.2 7.6-5 8.6-0.6 0.1-1.2 0.2-1.8 0.2z m32.4-18.8c-1.8 0-3.6-0.7-5-2L546 521.9c-2.7-2.7-2.7-7.2 0-9.9s7.2-2.7 9.9 0l12.3 12.3c2.7 2.7 2.7 7.2 0 9.9-1.4 1.3-3.2 2-5 2z m18.8-32.4c-0.6 0-1.2-0.1-1.8-0.2l-16.8-4.5c-3.7-1-6-4.8-5-8.6 1-3.7 4.8-6 8.6-5l16.8 4.5c3.7 1 6 4.8 5 8.6-0.9 3.1-3.7 5.2-6.8 5.2z m-16.8-33.1c-3.1 0-5.9-2.1-6.8-5.2-1-3.7 1.2-7.6 5-8.6l16.8-4.5c3.7-1 7.6 1.2 8.6 5 1 3.7-1.2 7.6-5 8.6l-16.8 4.5c-0.6 0.1-1.2 0.2-1.8 0.2z m-14.3-24.6c-1.8 0-3.6-0.7-4.9-2.1-2.7-2.7-2.7-7.2 0-9.9l12.3-12.3c2.7-2.7 7.2-2.7 9.9 0s2.7 7.2 0 9.9L555.9 444c-1.4 1.4-3.2 2.1-5 2.1z m-24.6-14.3c-0.6 0-1.2-0.1-1.8-0.2-3.7-1-6-4.8-5-8.6l4.5-16.8c1-3.7 4.8-6 8.6-5 3.7 1 6 4.8 5 8.6l-4.5 16.8c-0.9 3.1-3.7 5.2-6.8 5.2zM512 519c-22.6 0-41-18.4-41-41s18.4-41 41-41 41 18.4 41 41-18.4 41-41 41z m0-68c-14.9 0-27 12.1-27 27s12.1 27 27 27 27-12.1 27-27-12.1-27-27-27z m361.3 31l-13.5-3.6c-1.8-0.5-3.6-0.2-5.2 0.6 0.2-1.8 0.4-3.5 0.4-5.3 0-1.8-0.1-3.5-0.4-5.3 1 0.6 2.2 0.9 3.4 0.9 0.6 0 1.2-0.1 1.9-0.3l13.5-3.7c3.7-1 5.9-4.9 4.9-8.6-1-3.7-4.9-5.9-8.6-4.9l-13.5 3.7c-1.8 0.5-3.2 1.6-4.1 3.1-1.4-3.3-3.2-6.5-5.4-9.3 1.8 0 3.6-0.7 4.9-2l9.8-9.8c2.7-2.7 2.7-7.2 0-9.9s-7.2-2.7-9.9 0l-9.8 9.8c-1.4 1.4-2 3.2-2.1 4.9-2.8-2.2-5.9-4-9.3-5.4 1.5-0.9 2.7-2.4 3.2-4.2l3.6-13.5c1-3.7-1.2-7.6-5-8.6-3.7-1-7.6 1.2-8.6 5l-3.6 13.5c-0.5 1.9-0.2 3.7 0.7 5.3-1.7-0.2-3.5-0.4-5.3-0.4-1.8 0-3.6 0.1-5.4 0.4 0.9-1.5 1.2-3.4 0.7-5.3l-3.6-13.5c-1-3.7-4.8-6-8.6-5-3.7 1-6 4.8-5 8.6l3.6 13.5c0.5 1.9 1.7 3.4 3.3 4.2-3.3 1.4-6.5 3.2-9.3 5.4 0-1.8-0.7-3.6-2.1-5l-9.9-9.8c-2.7-2.7-7.2-2.7-9.9 0s-2.7 7.2 0 9.9l6.7 6.7c-21.6 1-39 18.2-40.2 39.8-14.4 2.6-25.4 15.3-25.4 30.4 0 17 13.9 30.9 30.9 30.9h84.2c20.1 0 36.5-16.4 36.5-36.5 0-5.9-1.4-11.5-3.9-16.4l11.5 3.1c0.6 0.2 1.2 0.2 1.8 0.2 3.1 0 5.9-2.1 6.8-5.2 1.3-3.5-1-7.4-4.7-8.4z m-32.3-8.2c0 0.7 0 1.3-0.1 2-4.7-2.2-9.8-3.4-15.3-3.4-2.6 0-5.2 0.3-7.8 0.9-2.9-8.7-8.5-16.2-15.8-21.3 4-2.4 8.6-3.8 13.3-3.8 14.2 0 25.7 11.5 25.7 25.6z m-15.3 57.6c-0.6-0.1-1.7-0.2-2.7 0h-79c-0.8-0.1-1.6-0.1-2.4 0h-0.2c-9.3 0-16.9-7.6-16.9-16.9 0-9.3 7.6-16.9 16.9-16.9h0.3c0.4 0 0.9 0.1 1.5 0.1 2 0 4-0.9 5.3-2.4 1.3-1.5 1.9-3.6 1.6-5.6-0.2-1.1-0.2-2.2-0.2-3.3 0-15.5 12.6-28.1 28.1-28.1 14.3 0 26.2 10.7 27.8 24.9 0.3 2.3 1.6 4.2 3.6 5.3 2 1.1 4.4 1.2 6.4 0.2 3.1-1.5 6.5-2.3 9.8-2.3 12.4 0 22.5 10.1 22.5 22.5s-10 22.4-22.4 22.5z"
        fill="#3F1E01" p-id="2179"></path>
    <path d="M456.4 610m-14.6 0a14.6 14.6 0 1 0 29.2 0 14.6 14.6 0 1 0-29.2 0Z" fill="#3F1E01" p-id="2180"></path>
    <path
        d="M515.9 789c-43.6 0-79-35.4-79-79v-9c0-43.6 35.4-79 79-79 25.6 0 49.8 12.6 64.7 33.7 6.4 9 4.2 21.5-4.8 27.9-9 6.4-21.5 4.2-27.9-4.8-7.4-10.5-19.3-16.7-31.9-16.7-21.5 0-39 17.5-39 39v9c0 21.5 17.5 39 39 39 12.4 0 24.2-6.1 31.6-16.3 6.4-9 18.9-11 27.9-4.6s11 18.9 4.6 27.9c-15 20.6-38.9 32.9-64.2 32.9z"
        fill="#3F1E01" p-id="2181"></path>
    <path d="M735.9 610m-14.6 0a14.6 14.6 0 1 0 29.2 0 14.6 14.6 0 1 0-29.2 0Z" fill="#3F1E01" p-id="2182"></path>
    <path
        d="M795.3 789c-43.6 0-79-35.4-79-79v-9c0-43.6 35.4-79 79-79 25.6 0 49.8 12.6 64.7 33.7 6.4 9 4.2 21.5-4.8 27.9-9 6.4-21.5 4.2-27.9-4.8-7.4-10.5-19.3-16.7-31.9-16.7-21.5 0-39 17.5-39 39v9c0 21.5 17.5 39 39 39 12.6 0 24.2-6 31.7-16.3 6.5-8.9 19-10.9 27.9-4.5 8.9 6.5 10.9 19 4.5 27.9-15 20.5-39 32.8-64.2 32.8z"
        fill="#3F1E01" p-id="2183"></path>
    <path d="M177.1 610m-14.6 0a14.6 14.6 0 1 0 29.2 0 14.6 14.6 0 1 0-29.2 0Z" fill="#3F1E01" p-id="2184"></path>
    <path
        d="M236.5 789c-43.6 0-79-35.4-79-79v-9c0-43.6 35.4-79 79-79 25.6 0 49.8 12.6 64.7 33.7 6.4 9 4.2 21.5-4.8 27.9-9 6.4-21.5 4.2-27.9-4.8-7.4-10.5-19.3-16.7-31.9-16.7-21.5 0-39 17.5-39 39v9c0 21.5 17.5 39 39 39 12.4 0 24.2-6.1 31.6-16.3 6.4-9 18.9-11 27.9-4.6s11 18.9 4.6 27.9c-15 20.6-38.9 32.9-64.2 32.9z"
        fill="#3F1E01" p-id="2185"></path>
</svg>